<mxfile host="Electron" modified="2024-07-09T09:52:59.844Z" agent="Mozilla/5.0 (Windows NT 10.0; Win64; x64) AppleWebKit/537.36 (KHTML, like Gecko) draw.io/24.6.4 Chrome/124.0.6367.207 Electron/30.0.6 Safari/537.36" etag="Y19tM0SJpxG5h0rQpZub" version="24.6.4" type="device">
  <diagram name="Страница — 1" id="R1fD0nrXu7qtdymG4JDV">
    <mxGraphModel dx="1151" dy="682" grid="1" gridSize="10" guides="1" tooltips="1" connect="1" arrows="1" fold="1" page="1" pageScale="1" pageWidth="827" pageHeight="1169" math="0" shadow="0">
      <root>
        <mxCell id="0" />
        <mxCell id="1" parent="0" />
        <mxCell id="Mt6GUVM1HJP9W4MURPYU-1" value="Admin" style="shape=umlActor;verticalLabelPosition=bottom;verticalAlign=top;html=1;outlineConnect=0;" parent="1" vertex="1">
          <mxGeometry x="40" y="160" width="30" height="60" as="geometry" />
        </mxCell>
        <mxCell id="Mt6GUVM1HJP9W4MURPYU-2" value="Moderator" style="shape=umlActor;verticalLabelPosition=bottom;verticalAlign=top;html=1;outlineConnect=0;" parent="1" vertex="1">
          <mxGeometry x="40" y="840" width="30" height="60" as="geometry" />
        </mxCell>
        <mxCell id="Mt6GUVM1HJP9W4MURPYU-3" value="&lt;div&gt;User&lt;/div&gt;&lt;div&gt;&lt;br&gt;&lt;/div&gt;" style="shape=umlActor;verticalLabelPosition=bottom;verticalAlign=top;html=1;outlineConnect=0;" parent="1" vertex="1">
          <mxGeometry x="810" y="525" width="30" height="60" as="geometry" />
        </mxCell>
        <mxCell id="Mt6GUVM1HJP9W4MURPYU-9" value="" style="swimlane;startSize=0;" parent="1" vertex="1">
          <mxGeometry x="110" y="200" width="680" height="650" as="geometry" />
        </mxCell>
        <mxCell id="Mt6GUVM1HJP9W4MURPYU-24" value="просмотр мест ловли рыбы" style="ellipse;whiteSpace=wrap;html=1;" parent="Mt6GUVM1HJP9W4MURPYU-9" vertex="1">
          <mxGeometry x="330" y="35" width="120" height="50" as="geometry" />
        </mxCell>
        <mxCell id="Mt6GUVM1HJP9W4MURPYU-30" value="писать комментарий к месту" style="ellipse;whiteSpace=wrap;html=1;" parent="Mt6GUVM1HJP9W4MURPYU-9" vertex="1">
          <mxGeometry x="520" y="280" width="120" height="60" as="geometry" />
        </mxCell>
        <mxCell id="Mt6GUVM1HJP9W4MURPYU-32" value="оценить от 1 до 5" style="ellipse;whiteSpace=wrap;html=1;" parent="Mt6GUVM1HJP9W4MURPYU-9" vertex="1">
          <mxGeometry x="460" y="410" width="100" height="50" as="geometry" />
        </mxCell>
        <mxCell id="Mt6GUVM1HJP9W4MURPYU-33" value="написать текст" style="ellipse;whiteSpace=wrap;html=1;" parent="Mt6GUVM1HJP9W4MURPYU-9" vertex="1">
          <mxGeometry x="570" y="410" width="110" height="50" as="geometry" />
        </mxCell>
        <mxCell id="Mt6GUVM1HJP9W4MURPYU-35" value="" style="endArrow=classic;dashed=1;endFill=1;html=1;rounded=0;entryX=0.259;entryY=0.956;entryDx=0;entryDy=0;entryPerimeter=0;exitX=0.5;exitY=0;exitDx=0;exitDy=0;" parent="Mt6GUVM1HJP9W4MURPYU-9" source="Mt6GUVM1HJP9W4MURPYU-32" target="Mt6GUVM1HJP9W4MURPYU-30" edge="1">
          <mxGeometry width="160" relative="1" as="geometry">
            <mxPoint x="400" y="420" as="sourcePoint" />
            <mxPoint x="560" y="420" as="targetPoint" />
          </mxGeometry>
        </mxCell>
        <mxCell id="Mt6GUVM1HJP9W4MURPYU-36" value="include" style="edgeLabel;html=1;align=center;verticalAlign=middle;resizable=0;points=[];" parent="Mt6GUVM1HJP9W4MURPYU-35" vertex="1" connectable="0">
          <mxGeometry x="0.0983" y="2" relative="1" as="geometry">
            <mxPoint as="offset" />
          </mxGeometry>
        </mxCell>
        <mxCell id="Mt6GUVM1HJP9W4MURPYU-37" value="" style="endArrow=classic;dashed=1;endFill=1;html=1;rounded=0;entryX=0.569;entryY=1.014;entryDx=0;entryDy=0;entryPerimeter=0;exitX=0.5;exitY=0;exitDx=0;exitDy=0;" parent="Mt6GUVM1HJP9W4MURPYU-9" source="Mt6GUVM1HJP9W4MURPYU-33" target="Mt6GUVM1HJP9W4MURPYU-30" edge="1">
          <mxGeometry width="160" relative="1" as="geometry">
            <mxPoint x="560" y="473" as="sourcePoint" />
            <mxPoint x="631" y="360" as="targetPoint" />
          </mxGeometry>
        </mxCell>
        <mxCell id="Mt6GUVM1HJP9W4MURPYU-38" value="include" style="edgeLabel;html=1;align=center;verticalAlign=middle;resizable=0;points=[];" parent="Mt6GUVM1HJP9W4MURPYU-37" vertex="1" connectable="0">
          <mxGeometry x="0.0983" y="2" relative="1" as="geometry">
            <mxPoint as="offset" />
          </mxGeometry>
        </mxCell>
        <mxCell id="Mt6GUVM1HJP9W4MURPYU-39" value="создание места для рыбалки" style="ellipse;whiteSpace=wrap;html=1;" parent="Mt6GUVM1HJP9W4MURPYU-9" vertex="1">
          <mxGeometry x="520" y="480" width="120" height="50" as="geometry" />
        </mxCell>
        <mxCell id="Mt6GUVM1HJP9W4MURPYU-41" value="прикрепление фото" style="ellipse;whiteSpace=wrap;html=1;" parent="Mt6GUVM1HJP9W4MURPYU-9" vertex="1">
          <mxGeometry x="475" y="550" width="100" height="40" as="geometry" />
        </mxCell>
        <mxCell id="Mt6GUVM1HJP9W4MURPYU-42" value="ввод данных для подсчёта статистики клёва" style="ellipse;whiteSpace=wrap;html=1;" parent="Mt6GUVM1HJP9W4MURPYU-9" vertex="1">
          <mxGeometry x="560" y="580" width="120" height="50" as="geometry" />
        </mxCell>
        <mxCell id="Mt6GUVM1HJP9W4MURPYU-44" value="Extends" style="endArrow=classic;endFill=1;html=1;rounded=0;dashed=1;entryX=0;entryY=1;entryDx=0;entryDy=0;exitX=0.5;exitY=0;exitDx=0;exitDy=0;" parent="Mt6GUVM1HJP9W4MURPYU-9" source="Mt6GUVM1HJP9W4MURPYU-41" target="Mt6GUVM1HJP9W4MURPYU-39" edge="1">
          <mxGeometry width="160" relative="1" as="geometry">
            <mxPoint x="310" y="540" as="sourcePoint" />
            <mxPoint x="470" y="540" as="targetPoint" />
          </mxGeometry>
        </mxCell>
        <mxCell id="Mt6GUVM1HJP9W4MURPYU-45" value="Extends" style="endArrow=classic;endFill=1;html=1;rounded=0;dashed=1;entryX=0.736;entryY=0.968;entryDx=0;entryDy=0;exitX=0.5;exitY=0;exitDx=0;exitDy=0;entryPerimeter=0;" parent="Mt6GUVM1HJP9W4MURPYU-9" source="Mt6GUVM1HJP9W4MURPYU-42" target="Mt6GUVM1HJP9W4MURPYU-39" edge="1">
          <mxGeometry width="160" relative="1" as="geometry">
            <mxPoint x="580" y="587" as="sourcePoint" />
            <mxPoint x="617" y="530" as="targetPoint" />
          </mxGeometry>
        </mxCell>
        <mxCell id="Mt6GUVM1HJP9W4MURPYU-46" value="писать статьи" style="ellipse;whiteSpace=wrap;html=1;" parent="Mt6GUVM1HJP9W4MURPYU-9" vertex="1">
          <mxGeometry x="535" y="180" width="110" height="40" as="geometry" />
        </mxCell>
        <mxCell id="Mt6GUVM1HJP9W4MURPYU-47" value="о различных соревнованиях" style="ellipse;whiteSpace=wrap;html=1;" parent="Mt6GUVM1HJP9W4MURPYU-9" vertex="1">
          <mxGeometry x="470" y="100" width="110" height="40" as="geometry" />
        </mxCell>
        <mxCell id="Mt6GUVM1HJP9W4MURPYU-48" value="выбор снастей и техники ловли" style="ellipse;whiteSpace=wrap;html=1;" parent="Mt6GUVM1HJP9W4MURPYU-9" vertex="1">
          <mxGeometry x="440" y="240" width="110" height="40" as="geometry" />
        </mxCell>
        <mxCell id="Mt6GUVM1HJP9W4MURPYU-49" value="рекордных показателях" style="ellipse;whiteSpace=wrap;html=1;" parent="Mt6GUVM1HJP9W4MURPYU-9" vertex="1">
          <mxGeometry x="360" y="160" width="120" height="50" as="geometry" />
        </mxCell>
        <mxCell id="Mt6GUVM1HJP9W4MURPYU-55" value="" style="endArrow=classic;dashed=1;endFill=1;html=1;rounded=0;exitX=0.58;exitY=1.021;exitDx=0;exitDy=0;exitPerimeter=0;" parent="Mt6GUVM1HJP9W4MURPYU-9" source="Mt6GUVM1HJP9W4MURPYU-47" target="Mt6GUVM1HJP9W4MURPYU-46" edge="1">
          <mxGeometry width="160" relative="1" as="geometry">
            <mxPoint x="358.5" y="149" as="sourcePoint" />
            <mxPoint x="321.5" y="80" as="targetPoint" />
          </mxGeometry>
        </mxCell>
        <mxCell id="Mt6GUVM1HJP9W4MURPYU-56" value="include" style="edgeLabel;html=1;align=center;verticalAlign=middle;resizable=0;points=[];" parent="Mt6GUVM1HJP9W4MURPYU-55" vertex="1" connectable="0">
          <mxGeometry x="0.0983" y="2" relative="1" as="geometry">
            <mxPoint as="offset" />
          </mxGeometry>
        </mxCell>
        <mxCell id="Mt6GUVM1HJP9W4MURPYU-53" value="" style="endArrow=classic;dashed=1;endFill=1;html=1;rounded=0;entryX=0;entryY=0.5;entryDx=0;entryDy=0;exitX=0.96;exitY=0.768;exitDx=0;exitDy=0;exitPerimeter=0;" parent="Mt6GUVM1HJP9W4MURPYU-9" source="Mt6GUVM1HJP9W4MURPYU-49" target="Mt6GUVM1HJP9W4MURPYU-46" edge="1">
          <mxGeometry width="160" relative="1" as="geometry">
            <mxPoint x="341" y="259" as="sourcePoint" />
            <mxPoint x="304" y="190" as="targetPoint" />
          </mxGeometry>
        </mxCell>
        <mxCell id="Mt6GUVM1HJP9W4MURPYU-54" value="include" style="edgeLabel;html=1;align=center;verticalAlign=middle;resizable=0;points=[];" parent="Mt6GUVM1HJP9W4MURPYU-53" vertex="1" connectable="0">
          <mxGeometry x="0.0983" y="2" relative="1" as="geometry">
            <mxPoint as="offset" />
          </mxGeometry>
        </mxCell>
        <mxCell id="Mt6GUVM1HJP9W4MURPYU-51" value="" style="endArrow=classic;dashed=1;endFill=1;html=1;rounded=0;entryX=0.058;entryY=0.779;entryDx=0;entryDy=0;entryPerimeter=0;exitX=0.5;exitY=0;exitDx=0;exitDy=0;" parent="Mt6GUVM1HJP9W4MURPYU-9" source="Mt6GUVM1HJP9W4MURPYU-48" target="Mt6GUVM1HJP9W4MURPYU-46" edge="1">
          <mxGeometry width="160" relative="1" as="geometry">
            <mxPoint x="420" y="344.5" as="sourcePoint" />
            <mxPoint x="383" y="275.5" as="targetPoint" />
          </mxGeometry>
        </mxCell>
        <mxCell id="Mt6GUVM1HJP9W4MURPYU-52" value="include" style="edgeLabel;html=1;align=center;verticalAlign=middle;resizable=0;points=[];" parent="Mt6GUVM1HJP9W4MURPYU-51" vertex="1" connectable="0">
          <mxGeometry x="0.0983" y="2" relative="1" as="geometry">
            <mxPoint as="offset" />
          </mxGeometry>
        </mxCell>
        <mxCell id="Mt6GUVM1HJP9W4MURPYU-57" value="установка ограничений пользователю" style="ellipse;whiteSpace=wrap;html=1;" parent="Mt6GUVM1HJP9W4MURPYU-9" vertex="1">
          <mxGeometry x="10" y="230" width="130" height="60" as="geometry" />
        </mxCell>
        <mxCell id="Mt6GUVM1HJP9W4MURPYU-58" value="обработка данных" style="ellipse;whiteSpace=wrap;html=1;" parent="Mt6GUVM1HJP9W4MURPYU-9" vertex="1">
          <mxGeometry x="30" y="560" width="130" height="60" as="geometry" />
        </mxCell>
        <mxCell id="Mt6GUVM1HJP9W4MURPYU-59" value="обработка статьи" style="ellipse;whiteSpace=wrap;html=1;" parent="Mt6GUVM1HJP9W4MURPYU-9" vertex="1">
          <mxGeometry x="120" y="430" width="100" height="50" as="geometry" />
        </mxCell>
        <mxCell id="Mt6GUVM1HJP9W4MURPYU-61" value="обработка данных нового места" style="ellipse;whiteSpace=wrap;html=1;" parent="Mt6GUVM1HJP9W4MURPYU-9" vertex="1">
          <mxGeometry x="190" y="490" width="120" height="50" as="geometry" />
        </mxCell>
        <mxCell id="Mt6GUVM1HJP9W4MURPYU-62" value="Extends" style="endArrow=classic;endFill=1;html=1;rounded=0;dashed=1;entryX=0.693;entryY=0.025;entryDx=0;entryDy=0;exitX=0;exitY=0.5;exitDx=0;exitDy=0;entryPerimeter=0;" parent="Mt6GUVM1HJP9W4MURPYU-9" source="Mt6GUVM1HJP9W4MURPYU-59" target="Mt6GUVM1HJP9W4MURPYU-58" edge="1">
          <mxGeometry width="160" relative="1" as="geometry">
            <mxPoint x="130" y="560" as="sourcePoint" />
            <mxPoint x="167" y="498" as="targetPoint" />
          </mxGeometry>
        </mxCell>
        <mxCell id="Mt6GUVM1HJP9W4MURPYU-63" value="Extends" style="endArrow=classic;endFill=1;html=1;rounded=0;dashed=1;entryX=0.926;entryY=0.726;entryDx=0;entryDy=0;exitX=-0.014;exitY=0.637;exitDx=0;exitDy=0;entryPerimeter=0;exitPerimeter=0;" parent="Mt6GUVM1HJP9W4MURPYU-9" source="Mt6GUVM1HJP9W4MURPYU-61" target="Mt6GUVM1HJP9W4MURPYU-58" edge="1">
          <mxGeometry width="160" relative="1" as="geometry">
            <mxPoint x="160" y="622" as="sourcePoint" />
            <mxPoint x="197" y="560" as="targetPoint" />
          </mxGeometry>
        </mxCell>
        <mxCell id="Mt6GUVM1HJP9W4MURPYU-69" value="полная блокировка" style="ellipse;whiteSpace=wrap;html=1;" parent="Mt6GUVM1HJP9W4MURPYU-9" vertex="1">
          <mxGeometry x="260" y="260" width="110" height="40" as="geometry" />
        </mxCell>
        <mxCell id="Mt6GUVM1HJP9W4MURPYU-70" value="установка ограничения" style="ellipse;whiteSpace=wrap;html=1;" parent="Mt6GUVM1HJP9W4MURPYU-9" vertex="1">
          <mxGeometry x="230" y="320" width="110" height="40" as="geometry" />
        </mxCell>
        <mxCell id="Mt6GUVM1HJP9W4MURPYU-71" value="Extends" style="endArrow=classic;endFill=1;html=1;rounded=0;dashed=1;entryX=0.971;entryY=0.663;entryDx=0;entryDy=0;exitX=0;exitY=0;exitDx=0;exitDy=0;entryPerimeter=0;" parent="Mt6GUVM1HJP9W4MURPYU-9" source="Mt6GUVM1HJP9W4MURPYU-69" target="Mt6GUVM1HJP9W4MURPYU-57" edge="1">
          <mxGeometry width="160" relative="1" as="geometry">
            <mxPoint x="314" y="353" as="sourcePoint" />
            <mxPoint x="194" y="370" as="targetPoint" />
          </mxGeometry>
        </mxCell>
        <mxCell id="Mt6GUVM1HJP9W4MURPYU-72" value="Extends" style="endArrow=classic;endFill=1;html=1;rounded=0;dashed=1;entryX=0.616;entryY=1.054;entryDx=0;entryDy=0;exitX=0.317;exitY=0.081;exitDx=0;exitDy=0;entryPerimeter=0;exitPerimeter=0;" parent="Mt6GUVM1HJP9W4MURPYU-9" source="Mt6GUVM1HJP9W4MURPYU-70" target="Mt6GUVM1HJP9W4MURPYU-57" edge="1">
          <mxGeometry width="160" relative="1" as="geometry">
            <mxPoint x="150" y="411.5" as="sourcePoint" />
            <mxPoint x="30" y="428.5" as="targetPoint" />
          </mxGeometry>
        </mxCell>
        <mxCell id="Mt6GUVM1HJP9W4MURPYU-73" value="редактирование места" style="ellipse;whiteSpace=wrap;html=1;" parent="Mt6GUVM1HJP9W4MURPYU-9" vertex="1">
          <mxGeometry x="355" y="520" width="110" height="50" as="geometry" />
        </mxCell>
        <mxCell id="Mt6GUVM1HJP9W4MURPYU-74" value="удаление места" style="ellipse;whiteSpace=wrap;html=1;" parent="Mt6GUVM1HJP9W4MURPYU-9" vertex="1">
          <mxGeometry x="240" y="400" width="110" height="40" as="geometry" />
        </mxCell>
        <mxCell id="Mt6GUVM1HJP9W4MURPYU-75" value="изменение данных" style="ellipse;whiteSpace=wrap;html=1;" parent="Mt6GUVM1HJP9W4MURPYU-9" vertex="1">
          <mxGeometry x="355" y="385" width="120" height="40" as="geometry" />
        </mxCell>
        <mxCell id="Mt6GUVM1HJP9W4MURPYU-76" value="Extends" style="endArrow=classic;endFill=1;html=1;rounded=0;dashed=1;entryX=0;entryY=0;entryDx=0;entryDy=0;exitX=0.726;exitY=0.965;exitDx=0;exitDy=0;exitPerimeter=0;" parent="Mt6GUVM1HJP9W4MURPYU-9" source="Mt6GUVM1HJP9W4MURPYU-74" target="Mt6GUVM1HJP9W4MURPYU-73" edge="1">
          <mxGeometry width="160" relative="1" as="geometry">
            <mxPoint x="345" y="310" as="sourcePoint" />
            <mxPoint x="225" y="327" as="targetPoint" />
          </mxGeometry>
        </mxCell>
        <mxCell id="Mt6GUVM1HJP9W4MURPYU-77" value="Extends" style="endArrow=classic;endFill=1;html=1;rounded=0;dashed=1;entryX=0.655;entryY=0.044;entryDx=0;entryDy=0;exitX=0.5;exitY=1;exitDx=0;exitDy=0;entryPerimeter=0;" parent="Mt6GUVM1HJP9W4MURPYU-9" source="Mt6GUVM1HJP9W4MURPYU-75" target="Mt6GUVM1HJP9W4MURPYU-73" edge="1">
          <mxGeometry width="160" relative="1" as="geometry">
            <mxPoint x="359.5" y="417" as="sourcePoint" />
            <mxPoint x="390.5" y="450" as="targetPoint" />
          </mxGeometry>
        </mxCell>
        <mxCell id="Mt6GUVM1HJP9W4MURPYU-82" value="добавление данных о выбраном месте" style="ellipse;whiteSpace=wrap;html=1;" parent="Mt6GUVM1HJP9W4MURPYU-9" vertex="1">
          <mxGeometry x="370" y="590" width="120" height="55" as="geometry" />
        </mxCell>
        <mxCell id="Mt6GUVM1HJP9W4MURPYU-85" value="" style="endArrow=classic;dashed=1;endFill=1;html=1;rounded=0;entryX=0.966;entryY=0.689;entryDx=0;entryDy=0;entryPerimeter=0;exitX=0.081;exitY=0.817;exitDx=0;exitDy=0;exitPerimeter=0;" parent="Mt6GUVM1HJP9W4MURPYU-9" source="Mt6GUVM1HJP9W4MURPYU-42" target="Mt6GUVM1HJP9W4MURPYU-82" edge="1">
          <mxGeometry width="160" relative="1" as="geometry">
            <mxPoint x="557" y="739" as="sourcePoint" />
            <mxPoint x="520" y="670" as="targetPoint" />
          </mxGeometry>
        </mxCell>
        <mxCell id="Mt6GUVM1HJP9W4MURPYU-86" value="include" style="edgeLabel;html=1;align=center;verticalAlign=middle;resizable=0;points=[];" parent="Mt6GUVM1HJP9W4MURPYU-85" vertex="1" connectable="0">
          <mxGeometry x="0.0983" y="2" relative="1" as="geometry">
            <mxPoint as="offset" />
          </mxGeometry>
        </mxCell>
        <mxCell id="Mt6GUVM1HJP9W4MURPYU-87" value="выдача роли пользователю" style="ellipse;whiteSpace=wrap;html=1;" parent="Mt6GUVM1HJP9W4MURPYU-9" vertex="1">
          <mxGeometry x="30" y="85" width="100" height="50" as="geometry" />
        </mxCell>
        <mxCell id="Mt6GUVM1HJP9W4MURPYU-88" value="выдача любой роли" style="ellipse;whiteSpace=wrap;html=1;" parent="Mt6GUVM1HJP9W4MURPYU-9" vertex="1">
          <mxGeometry x="180" y="70" width="110" height="40" as="geometry" />
        </mxCell>
        <mxCell id="Mt6GUVM1HJP9W4MURPYU-89" value="выдача ролей кроме moderator" style="ellipse;whiteSpace=wrap;html=1;" parent="Mt6GUVM1HJP9W4MURPYU-9" vertex="1">
          <mxGeometry x="130" y="200" width="110" height="50" as="geometry" />
        </mxCell>
        <mxCell id="Mt6GUVM1HJP9W4MURPYU-92" value="Extends" style="endArrow=classic;endFill=1;html=1;rounded=0;dashed=1;entryX=1;entryY=0.5;entryDx=0;entryDy=0;exitX=0;exitY=0.5;exitDx=0;exitDy=0;" parent="Mt6GUVM1HJP9W4MURPYU-9" source="Mt6GUVM1HJP9W4MURPYU-88" target="Mt6GUVM1HJP9W4MURPYU-87" edge="1">
          <mxGeometry width="160" relative="1" as="geometry">
            <mxPoint x="198" y="200" as="sourcePoint" />
            <mxPoint x="210" y="297" as="targetPoint" />
          </mxGeometry>
        </mxCell>
        <mxCell id="Mt6GUVM1HJP9W4MURPYU-93" value="Extends" style="endArrow=classic;endFill=1;html=1;rounded=0;dashed=1;exitX=0;exitY=0.5;exitDx=0;exitDy=0;" parent="Mt6GUVM1HJP9W4MURPYU-9" source="Mt6GUVM1HJP9W4MURPYU-89" target="Mt6GUVM1HJP9W4MURPYU-87" edge="1">
          <mxGeometry width="160" relative="1" as="geometry">
            <mxPoint x="110" y="180" as="sourcePoint" />
            <mxPoint x="122" y="277" as="targetPoint" />
          </mxGeometry>
        </mxCell>
        <mxCell id="Mt6GUVM1HJP9W4MURPYU-10" value="Journalist" style="shape=umlActor;verticalLabelPosition=bottom;verticalAlign=top;html=1;outlineConnect=0;" parent="1" vertex="1">
          <mxGeometry x="870" y="380" width="30" height="60" as="geometry" />
        </mxCell>
        <mxCell id="Mt6GUVM1HJP9W4MURPYU-11" value="Author" style="shape=umlActor;verticalLabelPosition=bottom;verticalAlign=top;html=1;outlineConnect=0;" parent="1" vertex="1">
          <mxGeometry x="900" y="660" width="30" height="60" as="geometry" />
        </mxCell>
        <mxCell id="Mt6GUVM1HJP9W4MURPYU-18" value="" style="endArrow=block;endSize=16;endFill=0;html=1;rounded=0;exitX=0.5;exitY=0;exitDx=0;exitDy=0;exitPerimeter=0;" parent="1" source="Mt6GUVM1HJP9W4MURPYU-11" target="Mt6GUVM1HJP9W4MURPYU-3" edge="1">
          <mxGeometry width="160" relative="1" as="geometry">
            <mxPoint x="740" y="460" as="sourcePoint" />
            <mxPoint x="830" y="610" as="targetPoint" />
          </mxGeometry>
        </mxCell>
        <mxCell id="Mt6GUVM1HJP9W4MURPYU-20" value="" style="endArrow=block;endSize=16;endFill=0;html=1;rounded=0;" parent="1" source="Mt6GUVM1HJP9W4MURPYU-10" target="Mt6GUVM1HJP9W4MURPYU-3" edge="1">
          <mxGeometry width="160" relative="1" as="geometry">
            <mxPoint x="880" y="630" as="sourcePoint" />
            <mxPoint x="925" y="540" as="targetPoint" />
          </mxGeometry>
        </mxCell>
        <mxCell id="Mt6GUVM1HJP9W4MURPYU-22" value="Guest" style="shape=umlActor;verticalLabelPosition=bottom;verticalAlign=top;html=1;" parent="1" vertex="1">
          <mxGeometry x="850" y="230" width="30" height="60" as="geometry" />
        </mxCell>
        <mxCell id="Mt6GUVM1HJP9W4MURPYU-28" value="" style="endArrow=none;html=1;rounded=0;" parent="1" source="Mt6GUVM1HJP9W4MURPYU-24" target="Mt6GUVM1HJP9W4MURPYU-22" edge="1">
          <mxGeometry width="50" height="50" relative="1" as="geometry">
            <mxPoint x="710" y="370" as="sourcePoint" />
            <mxPoint x="760" y="320" as="targetPoint" />
          </mxGeometry>
        </mxCell>
        <mxCell id="Mt6GUVM1HJP9W4MURPYU-29" value="" style="endArrow=none;html=1;rounded=0;" parent="1" source="Mt6GUVM1HJP9W4MURPYU-3" target="Mt6GUVM1HJP9W4MURPYU-24" edge="1">
          <mxGeometry width="50" height="50" relative="1" as="geometry">
            <mxPoint x="650" y="510" as="sourcePoint" />
            <mxPoint x="700" y="460" as="targetPoint" />
          </mxGeometry>
        </mxCell>
        <mxCell id="Mt6GUVM1HJP9W4MURPYU-31" value="" style="endArrow=none;html=1;rounded=0;exitX=1;exitY=0.5;exitDx=0;exitDy=0;" parent="1" source="Mt6GUVM1HJP9W4MURPYU-30" target="Mt6GUVM1HJP9W4MURPYU-3" edge="1">
          <mxGeometry width="50" height="50" relative="1" as="geometry">
            <mxPoint x="510" y="490" as="sourcePoint" />
            <mxPoint x="560" y="440" as="targetPoint" />
          </mxGeometry>
        </mxCell>
        <mxCell id="Mt6GUVM1HJP9W4MURPYU-40" value="" style="endArrow=none;html=1;rounded=0;exitX=1;exitY=0.5;exitDx=0;exitDy=0;" parent="1" source="Mt6GUVM1HJP9W4MURPYU-39" target="Mt6GUVM1HJP9W4MURPYU-11" edge="1">
          <mxGeometry width="50" height="50" relative="1" as="geometry">
            <mxPoint x="510" y="490" as="sourcePoint" />
            <mxPoint x="560" y="440" as="targetPoint" />
          </mxGeometry>
        </mxCell>
        <mxCell id="Mt6GUVM1HJP9W4MURPYU-50" value="" style="endArrow=none;html=1;rounded=0;entryX=0.5;entryY=0.5;entryDx=0;entryDy=0;entryPerimeter=0;exitX=0.996;exitY=0.633;exitDx=0;exitDy=0;exitPerimeter=0;" parent="1" source="Mt6GUVM1HJP9W4MURPYU-46" target="Mt6GUVM1HJP9W4MURPYU-10" edge="1">
          <mxGeometry width="50" height="50" relative="1" as="geometry">
            <mxPoint x="510" y="660" as="sourcePoint" />
            <mxPoint x="560" y="610" as="targetPoint" />
          </mxGeometry>
        </mxCell>
        <mxCell id="Mt6GUVM1HJP9W4MURPYU-64" value="" style="endArrow=none;html=1;rounded=0;entryX=0.003;entryY=0.657;entryDx=0;entryDy=0;entryPerimeter=0;" parent="1" source="Mt6GUVM1HJP9W4MURPYU-2" target="Mt6GUVM1HJP9W4MURPYU-58" edge="1">
          <mxGeometry width="50" height="50" relative="1" as="geometry">
            <mxPoint x="510" y="590" as="sourcePoint" />
            <mxPoint x="560" y="540" as="targetPoint" />
          </mxGeometry>
        </mxCell>
        <mxCell id="Mt6GUVM1HJP9W4MURPYU-65" value="" style="endArrow=none;html=1;rounded=0;" parent="1" source="Mt6GUVM1HJP9W4MURPYU-2" target="Mt6GUVM1HJP9W4MURPYU-24" edge="1">
          <mxGeometry width="50" height="50" relative="1" as="geometry">
            <mxPoint x="180" y="730" as="sourcePoint" />
            <mxPoint x="230" y="680" as="targetPoint" />
          </mxGeometry>
        </mxCell>
        <mxCell id="Mt6GUVM1HJP9W4MURPYU-66" value="" style="endArrow=none;html=1;rounded=0;entryX=0;entryY=0.5;entryDx=0;entryDy=0;" parent="1" source="Mt6GUVM1HJP9W4MURPYU-1" target="Mt6GUVM1HJP9W4MURPYU-24" edge="1">
          <mxGeometry width="50" height="50" relative="1" as="geometry">
            <mxPoint x="510" y="590" as="sourcePoint" />
            <mxPoint x="560" y="540" as="targetPoint" />
          </mxGeometry>
        </mxCell>
        <mxCell id="Mt6GUVM1HJP9W4MURPYU-67" value="" style="endArrow=none;html=1;rounded=0;" parent="1" source="Mt6GUVM1HJP9W4MURPYU-57" target="Mt6GUVM1HJP9W4MURPYU-1" edge="1">
          <mxGeometry width="50" height="50" relative="1" as="geometry">
            <mxPoint x="510" y="590" as="sourcePoint" />
            <mxPoint x="560" y="540" as="targetPoint" />
          </mxGeometry>
        </mxCell>
        <mxCell id="Mt6GUVM1HJP9W4MURPYU-68" value="" style="endArrow=none;html=1;rounded=0;entryX=0.114;entryY=0.887;entryDx=0;entryDy=0;entryPerimeter=0;" parent="1" source="Mt6GUVM1HJP9W4MURPYU-2" target="Mt6GUVM1HJP9W4MURPYU-57" edge="1">
          <mxGeometry width="50" height="50" relative="1" as="geometry">
            <mxPoint x="510" y="590" as="sourcePoint" />
            <mxPoint x="560" y="540" as="targetPoint" />
          </mxGeometry>
        </mxCell>
        <mxCell id="Mt6GUVM1HJP9W4MURPYU-81" value="" style="endArrow=none;html=1;rounded=0;entryX=0;entryY=1;entryDx=0;entryDy=0;" parent="1" source="Mt6GUVM1HJP9W4MURPYU-2" target="Mt6GUVM1HJP9W4MURPYU-73" edge="1">
          <mxGeometry width="50" height="50" relative="1" as="geometry">
            <mxPoint x="450" y="860" as="sourcePoint" />
            <mxPoint x="500" y="810" as="targetPoint" />
          </mxGeometry>
        </mxCell>
        <mxCell id="Mt6GUVM1HJP9W4MURPYU-84" value="" style="endArrow=none;html=1;rounded=0;exitX=1;exitY=0.5;exitDx=0;exitDy=0;" parent="1" source="Mt6GUVM1HJP9W4MURPYU-82" target="Mt6GUVM1HJP9W4MURPYU-11" edge="1">
          <mxGeometry width="50" height="50" relative="1" as="geometry">
            <mxPoint x="830" y="820" as="sourcePoint" />
            <mxPoint x="880" y="770" as="targetPoint" />
          </mxGeometry>
        </mxCell>
        <mxCell id="Mt6GUVM1HJP9W4MURPYU-90" value="" style="endArrow=none;html=1;rounded=0;entryX=0;entryY=0;entryDx=0;entryDy=0;" parent="1" source="Mt6GUVM1HJP9W4MURPYU-1" target="Mt6GUVM1HJP9W4MURPYU-88" edge="1">
          <mxGeometry width="50" height="50" relative="1" as="geometry">
            <mxPoint x="510" y="590" as="sourcePoint" />
            <mxPoint x="560" y="540" as="targetPoint" />
          </mxGeometry>
        </mxCell>
        <mxCell id="Mt6GUVM1HJP9W4MURPYU-91" value="" style="endArrow=none;html=1;rounded=0;entryX=0.29;entryY=0.978;entryDx=0;entryDy=0;entryPerimeter=0;exitX=0.75;exitY=0.1;exitDx=0;exitDy=0;exitPerimeter=0;" parent="1" source="Mt6GUVM1HJP9W4MURPYU-2" target="Mt6GUVM1HJP9W4MURPYU-89" edge="1">
          <mxGeometry width="50" height="50" relative="1" as="geometry">
            <mxPoint x="510" y="590" as="sourcePoint" />
            <mxPoint x="560" y="540" as="targetPoint" />
          </mxGeometry>
        </mxCell>
      </root>
    </mxGraphModel>
  </diagram>
</mxfile>
